<?xml version="1.0" encoding="UTF-8"?>
<svg id="Layer_1" data-name="Layer 1" xmlns="http://www.w3.org/2000/svg" viewBox="0 0 714.643 197.158">
  <g>
    <path d="M631.308,22.707c5.231,0,9.332,4.21,9.332,9.441,0,5.013-4.101,9.223-9.332,9.223-5.122,0-9.332-4.21-9.332-9.223,0-5.231,4.21-9.441,9.332-9.441"/>
    <path d="M210.347,107.242c-3.96-1.796-7.095-4.235-9.405-7.315-1.71-2.281-2.848-4.742-3.412-7.385-.313-1.465.823-2.845,2.321-2.845h10.927c.994,0,1.916.61,2.218,1.557.531,1.664,1.573,3.088,3.126,4.274,2.016,1.54,4.527,2.31,7.535,2.31,2.932,0,5.225-.586,6.875-1.76,1.65-1.172,2.475-2.676,2.475-4.51,0-1.98-1.009-3.465-3.025-4.455-2.018-.99-5.225-2.071-9.625-3.245-4.548-1.1-8.269-2.236-11.165-3.41-2.898-1.172-5.39-2.97-7.48-5.39-2.09-2.42-3.135-5.682-3.135-9.79,0-3.372.971-6.452,2.915-9.24,1.942-2.786,4.73-4.986,8.36-6.6,3.63-1.612,7.901-2.42,12.815-2.42,7.26,0,13.052,1.815,17.38,5.445,3.642,3.056,5.908,7.009,6.796,11.859.268,1.465-.833,2.826-2.322,2.826h-10.108c-1.038,0-1.978-.672-2.254-1.672-.456-1.652-1.365-3.019-2.726-4.103-1.798-1.43-4.199-2.145-7.205-2.145-2.788,0-4.933.514-6.435,1.54-1.504,1.028-2.255,2.458-2.255,4.29,0,2.054,1.026,3.613,3.08,4.675,2.052,1.064,5.242,2.145,9.57,3.245,4.4,1.1,8.03,2.238,10.89,3.41,2.86,1.174,5.335,2.989,7.425,5.445,2.09,2.458,3.171,5.703,3.245,9.735,0,3.52-.973,6.674-2.915,9.46-1.944,2.788-4.73,4.969-8.36,6.545s-7.865,2.365-12.705,2.365c-4.988,0-9.46-.899-13.42-2.695Z"/>
    <path d="M260.121,61.867c2.456-4.766,5.792-8.432,10.01-11,4.216-2.566,8.927-3.85,14.135-3.85,4.546,0,8.525.918,11.935,2.75,1.605.863,3.059,1.831,4.363,2.905,1.529,1.259,3.832.139,3.832-1.842v-.461c0-1.305,1.058-2.362,2.362-2.362h10.785c1.305,0,2.362,1.058,2.362,2.362v56.215c0,1.305-1.058,2.362-2.362,2.362h-10.785c-1.305,0-2.362-1.058-2.362-2.362v-.529c0-2.024-2.348-3.076-3.906-1.785-1.274,1.056-2.704,2.01-4.289,2.861-3.484,1.87-7.499,2.805-12.045,2.805-5.134,0-9.809-1.32-14.025-3.96-4.218-2.64-7.554-6.361-10.01-11.165-2.458-4.802-3.685-10.321-3.685-16.555,0-6.16,1.227-11.622,3.685-16.39ZM302.197,68.852c-1.468-2.676-3.448-4.73-5.94-6.16-2.494-1.43-5.17-2.145-8.03-2.145s-5.5.698-7.92,2.09c-2.42,1.394-4.383,3.429-5.885,6.105-1.504,2.678-2.255,5.849-2.255,9.515s.751,6.875,2.255,9.625c1.502,2.75,3.482,4.859,5.94,6.325,2.456,1.468,5.077,2.2,7.865,2.2,2.86,0,5.536-.715,8.03-2.145,2.492-1.43,4.472-3.482,5.94-6.16,1.466-2.676,2.2-5.885,2.2-9.625s-.734-6.947-2.2-9.625Z"/>
    <path d="M343.676,107.242c-3.96-1.796-7.095-4.235-9.405-7.315-1.71-2.281-2.848-4.742-3.412-7.385-.313-1.465.823-2.845,2.321-2.845h10.927c.994,0,1.916.61,2.218,1.557.531,1.664,1.573,3.088,3.126,4.274,2.016,1.54,4.527,2.31,7.535,2.31,2.932,0,5.225-.586,6.875-1.76,1.65-1.172,2.475-2.676,2.475-4.51,0-1.98-1.009-3.465-3.025-4.455-2.018-.99-5.225-2.071-9.625-3.245-4.548-1.1-8.269-2.236-11.165-3.41-2.898-1.172-5.39-2.97-7.48-5.39-2.09-2.42-3.135-5.682-3.135-9.79,0-3.372.971-6.452,2.915-9.24,1.942-2.786,4.73-4.986,8.36-6.6,3.63-1.612,7.901-2.42,12.815-2.42,7.26,0,13.052,1.815,17.38,5.445,3.642,3.056,5.908,7.009,6.796,11.859.268,1.465-.833,2.826-2.322,2.826h-10.108c-1.038,0-1.978-.672-2.254-1.672-.456-1.652-1.365-3.019-2.726-4.103-1.798-1.43-4.199-2.145-7.205-2.145-2.788,0-4.933.514-6.435,1.54-1.504,1.028-2.255,2.458-2.255,4.29,0,2.054,1.026,3.613,3.08,4.675,2.052,1.064,5.242,2.145,9.57,3.245,4.4,1.1,8.03,2.238,10.89,3.41,2.86,1.174,5.335,2.989,7.425,5.445,2.09,2.458,3.171,5.703,3.245,9.735,0,3.52-.973,6.674-2.915,9.46-1.944,2.788-4.73,4.969-8.36,6.545s-7.865,2.365-12.705,2.365c-4.988,0-9.46-.899-13.42-2.695Z"/>
    <path d="M447.656,83.097h-39.722c-1.503,0-2.648,1.394-2.315,2.86.696,3.062,2.091,5.556,4.187,7.48,2.712,2.494,6.05,3.74,10.01,3.74,5.262,0,9.127-2.078,11.596-6.236.42-.707,1.188-1.134,2.01-1.134h11.83c1.693,0,2.857,1.739,2.179,3.29-1.923,4.405-4.896,8.129-8.916,11.175-4.988,3.778-11.11,5.665-18.37,5.665-5.868,0-11.129-1.301-15.785-3.905-4.658-2.602-8.288-6.287-10.89-11.055-2.604-4.766-3.905-10.266-3.905-16.5,0-6.306,1.282-11.842,3.85-16.61,2.566-4.766,6.16-8.432,10.78-11,4.62-2.566,9.936-3.85,15.95-3.85,5.792,0,10.981,1.248,15.565,3.74,4.582,2.494,8.14,6.033,10.67,10.615,2.53,4.584,3.795,9.845,3.795,15.785,0,1.363-.057,2.641-.169,3.835-.113,1.201-1.144,2.105-2.35,2.105ZM431.598,72.757c1.468,0,2.626-1.335,2.328-2.773-.558-2.696-1.888-4.943-3.991-6.742-2.788-2.382-6.198-3.575-10.23-3.575-3.814,0-7.023,1.155-9.625,3.465-1.908,1.692-3.274,3.867-4.098,6.523-.477,1.535.641,3.102,2.248,3.102h23.367Z"/>
    <path d="M493.154,107.89l-9.749-14.709c-.965-1.456-3.122-1.397-4.006.109l-8.509,14.491c-.424.722-1.199,1.166-2.037,1.166h-10.79c-1.875,0-3.003-2.08-1.98-3.651l16.686-25.628c.514-.79.51-1.809-.011-2.595l-16.84-25.398c-1.041-1.57.085-3.668,1.969-3.668h11.708c.793,0,1.534.398,1.971,1.06l9.656,14.612c.96,1.453,3.108,1.403,4-.092l8.606-14.428c.426-.715,1.197-1.152,2.029-1.152h10.771c1.882,0,3.008,2.092,1.972,3.663l-16.745,25.394c-.521.79-.52,1.815.002,2.604l16.952,25.612c1.039,1.57-.087,3.666-1.97,3.666h-11.715c-.792,0-1.532-.397-1.969-1.057Z"/>
    <path d="M543.189,49.822c3.482-1.87,7.461-2.805,11.935-2.805,5.206,0,9.917,1.284,14.135,3.85,4.216,2.568,7.552,6.215,10.01,10.945,2.456,4.73,3.685,10.213,3.685,16.445s-1.229,11.753-3.685,16.555c-2.458,4.804-5.794,8.525-10.01,11.165-4.218,2.64-8.929,3.96-14.135,3.96-4.474,0-8.415-.918-11.825-2.75-1.643-.883-3.137-1.876-4.482-2.981-1.526-1.253-3.823-.123-3.823,1.851v29.567c0,1.305-1.058,2.362-2.362,2.362h-10.675c-1.305,0-2.362-1.058-2.362-2.362V50.37c0-1.305,1.058-2.362,2.362-2.362h10.675c1.305,0,2.362,1.058,2.362,2.362v.506c0,2.015,2.333,3.073,3.892,1.796,1.277-1.045,2.711-1.995,4.303-2.849ZM564.969,68.742c-1.504-2.676-3.484-4.711-5.94-6.105-2.458-1.392-5.115-2.09-7.975-2.09-2.788,0-5.409.715-7.865,2.145-2.458,1.43-4.438,3.503-5.94,6.215-1.504,2.714-2.255,5.904-2.255,9.57s.751,6.858,2.255,9.57c1.502,2.714,3.482,4.785,5.94,6.215,3.457,2.013,7.24,2.609,11.356,1.789.09-.018.183-.04.272-.065,4.483-1.243,7.867-3.926,10.152-8.049,1.502-2.712,2.255-5.94,2.255-9.68,0-3.666-.753-6.837-2.255-9.515Z"/>
    <path d="M609.573,29.91v76.675c0,1.305-1.058,2.362-2.362,2.362h-10.675c-1.305,0-2.362-1.058-2.362-2.362V29.91c0-1.305,1.058-2.362,2.362-2.362h10.675c1.305,0,2.362,1.058,2.362,2.362Z"/>
    <rect x="623.608" y="48.007" width="15.4" height="60.94" rx="2.362" ry="2.362"/>
    <path d="M654.968,62.142c2.53-4.73,5.957-8.415,10.285-11.055,4.326-2.64,9.092-3.96,14.3-3.96,4.326,0,8.157.825,11.495,2.475,1.586.784,3.027,1.672,4.323,2.664,1.54,1.178,3.762.043,3.762-1.896h0c0-1.305,1.058-2.362,2.362-2.362h10.785c1.305,0,2.362,1.058,2.362,2.362v85.255c0,1.305-1.058,2.362-2.362,2.362h-10.785c-1.305,0-2.362-1.058-2.362-2.362v-29.384c0-1.951-2.248-3.086-3.783-1.881-1.33,1.043-2.819,1.986-4.467,2.828-3.448,1.76-7.334,2.64-11.66,2.64-5.134,0-9.845-1.337-14.135-4.015-4.29-2.676-7.683-6.397-10.175-11.165-2.494-4.766-3.74-10.192-3.74-16.28s1.265-11.495,3.795-16.225ZM696.823,68.797c-1.54-2.712-3.539-4.766-5.995-6.16-2.458-1.392-5.079-2.09-7.865-2.09-2.714,0-5.299.698-7.755,2.09-2.458,1.394-4.455,3.429-5.995,6.105-1.54,2.678-2.31,5.885-2.31,9.625s.77,6.985,2.31,9.735c1.54,2.75,3.537,4.823,5.995,6.215,2.456,1.394,5.041,2.09,7.755,2.09,2.786,0,5.407-.696,7.865-2.09,2.456-1.392,4.455-3.446,5.995-6.16,1.54-2.712,2.31-5.94,2.31-9.68s-.77-6.966-2.31-9.68Z"/>
  </g>
  <path d="M68.289,44.287c5.245,0,9.441,4.196,9.441,9.332s-4.196,9.332-9.441,9.332c-5.041,0-9.223-4.196-9.223-9.332s4.182-9.332,9.223-9.332"/>
  <path d="M97.627,44.287c5.245,0,9.441,4.196,9.441,9.332s-4.196,9.332-9.441,9.332c-5.027,0-9.223-4.196-9.223-9.332s4.196-9.332,9.223-9.332"/>
  <path d="M83.067,98.838s-11.261.652-13.149-8.782c-.294-1.47.817-2.851,2.316-2.851h10.833s10.833,0,10.833,0c1.499,0,2.61,1.381,2.316,2.851-1.888,9.433-13.149,8.782-13.149,8.782M53.936,78.639v3.461c0,15.874,12.447,29.293,28.316,29.726,16.463.45,29.948-12.759,29.948-29.121v-4.066c0-1.304-1.057-2.361-2.361-2.361h-53.541c-1.304,0-2.361,1.057-2.361,2.361Z"/>
  <path d="M0,2.361v151.847c0,1.304,1.057,2.361,2.361,2.361h55.545c.859,0,1.65.467,2.066,1.218l21.106,38.152c.899,1.624,3.234,1.624,4.132,0l21.106-38.152c.416-.752,1.207-1.218,2.066-1.218h55.546c1.304,0,2.361-1.057,2.361-2.361V2.361c0-1.304-1.057-2.361-2.361-2.361H2.361C1.057,0,0,1.057,0,2.361ZM151.29,139.209c0,1.304-1.057,2.361-2.361,2.361h-49.39c-.859,0-1.65.467-2.066,1.218l-7.624,13.782-4.638,8.383c-.899,1.624-3.234,1.624-4.132,0l-4.637-8.383-7.624-13.782c-.416-.752-1.207-1.218-2.066-1.218H17.361c-1.304,0-2.361-1.057-2.361-2.361V17.361c0-1.304,1.057-2.361,2.361-2.361h131.568c1.304,0,2.361,1.057,2.361,2.361v121.847Z"/>
</svg>