<?xml version="1.0" encoding="UTF-8"?>
<svg version="1.1" xmlns="http://www.w3.org/2000/svg" width="960" height="960">
<path d="M0 0 C1.12919795 -0.00751056 2.2583959 -0.01502111 3.42181197 -0.02275926 C5.27902742 -0.01222401 5.27902742 -0.01222401 7.17376238 -0.00147593 C8.50971698 -0.00460537 9.84566903 -0.00904915 11.18161538 -0.01468903 C14.8677431 -0.02640921 18.5536362 -0.01936162 22.23976024 -0.00935517 C26.24429395 -0.00176604 30.24879084 -0.01151646 34.25331938 -0.01908517 C41.27676532 -0.0299396 48.30014213 -0.02957969 55.32359129 -0.02194369 C65.7675618 -0.01061958 76.21147373 -0.0163853 86.65544382 -0.02556861 C105.30611303 -0.04138685 123.95675146 -0.03998827 142.60742362 -0.03133187 C158.92929208 -0.0237933 175.25114924 -0.02181131 191.57301909 -0.0253998 C192.65454148 -0.02562896 193.73606386 -0.02585811 194.85035966 -0.02609421 C199.2403215 -0.02702819 203.63028333 -0.02798338 208.02024516 -0.02897351 C249.22552236 -0.03815637 290.43077992 -0.02982095 331.63605409 -0.01368281 C368.26435956 0.00055364 404.89263374 -0.00071836 441.52093893 -0.01506579 C482.64803064 -0.03112145 523.77510498 -0.03750419 564.90219939 -0.028229 C569.28459908 -0.02726681 573.66699878 -0.02632829 578.04939848 -0.0253998 C579.66805371 -0.02504396 579.66805371 -0.02504396 581.31940904 -0.02468092 C597.63245975 -0.021265 613.94549792 -0.02526587 630.25854689 -0.03283846 C648.80347175 -0.04140405 667.34836094 -0.03929788 685.89328133 -0.02299623 C696.27891643 -0.01416865 706.66447433 -0.01363924 717.05010747 -0.02493476 C723.98036726 -0.03164243 730.91056493 -0.02751063 737.84081549 -0.01442045 C741.7940942 -0.0072584 745.74721913 -0.00489701 749.70049321 -0.0156384 C753.29463693 -0.02530477 756.88848997 -0.02124817 760.48261237 -0.00609642 C762.38890638 -0.00163445 764.29521734 -0.01192527 766.20148578 -0.02275926 C776.95135358 0.04858242 776.95135358 0.04858242 781.37811667 3.37604749 C783.91372287 6.93047649 784.75338295 9.36954174 784.75646549 13.71580154 C784.7644885 14.78192913 784.77251151 15.84805672 784.78077763 16.94649121 C784.77432583 18.11404365 784.76787403 19.28159609 784.76122671 20.4845289 C784.76618623 21.73283195 784.77114574 22.981135 784.77625555 24.26726541 C784.78963564 27.74504332 784.7842659 31.22258154 784.77592205 34.70036595 C784.77013077 38.4790526 784.78165384 42.25769233 784.79098374 46.0363664 C784.80492065 52.66326436 784.80762268 59.29009405 784.80302435 65.91700399 C784.79620423 75.77132594 784.80643449 85.62557853 784.81998191 95.47989085 C784.84492322 114.10150784 784.84940944 132.72309621 784.84751594 151.34472721 C784.8461442 165.72146932 784.849954 180.09820146 784.85744101 194.47494161 C784.85849133 196.53860974 784.85953895 198.60227787 784.86058387 200.665946 C784.86110322 201.69030091 784.86162256 202.71465582 784.86215764 203.7700518 C784.86267778 204.79625416 784.86319792 205.82245651 784.86373383 206.87975591 C784.86425782 207.90764271 784.86478181 208.93552952 784.86532168 209.9945644 C784.87991009 238.91452095 784.88818518 267.83447384 784.88357168 296.75443399 C784.88339973 297.84522061 784.88322777 298.93600723 784.88305061 300.05984799 C784.88216169 305.58870291 784.88121687 311.11755782 784.8802526 316.64641272 C784.88006157 317.74451037 784.87987053 318.84260802 784.87967371 319.97398136 C784.87928662 322.19460238 784.87889629 324.41522341 784.87850273 326.63584443 C784.87253136 361.19648959 784.88797499 395.75706782 784.92010885 430.31769788 C784.95615976 469.12433355 784.97552208 507.93092677 784.97057015 546.73758024 C784.97010015 550.87283269 784.9696899 555.00808515 784.96931845 559.14333761 C784.96921606 560.16158247 784.96911368 561.17982734 784.96900819 562.22892811 C784.96781181 577.62100421 784.97980071 593.01303455 784.99846274 608.40509832 C785.0196678 625.90334331 785.02358231 643.40149211 785.00416315 660.89974134 C784.99381175 670.69888396 784.99737086 680.49779219 785.020694 690.29691378 C785.03488235 696.83623325 785.03101448 703.37537852 785.01224823 709.9146861 C785.00205762 713.64476465 784.99987322 717.37438563 785.01956892 721.10443633 C785.0405673 725.11723321 785.0231458 729.12893082 785.00173575 733.14172494 C785.01401327 734.30693621 785.0262908 735.47214749 785.03894037 736.67266819 C784.94113482 745.37877529 784.94113482 745.37877529 782.08914047 749.01569265 C778.16554098 752.43177739 775.82938616 753.62589474 770.63634974 753.62658727 C769.68050205 753.63158597 768.72465435 753.63658467 767.73984158 753.64173484 C766.69267466 753.63707162 765.64550774 753.63240841 764.56660849 753.62760389 C762.89455899 753.6320591 762.89455899 753.6320591 761.18873072 753.63660431 C757.44004007 753.64426499 753.69150515 753.63774177 749.94281393 753.63141859 C747.2607098 753.63416747 744.578619 753.63772825 741.89651877 753.64238966 C736.11418272 753.6510256 730.33187726 753.65283009 724.54953581 753.65044248 C716.18377229 753.64734681 707.81807652 753.65897664 699.45233005 753.67499228 C685.87250391 753.70096005 672.29267772 753.72097613 658.71283346 753.73444593 C657.89996919 753.7352563 657.08710492 753.73606667 656.24960839 753.7369016 C644.71176465 753.74812518 633.17392574 753.75340467 621.63607728 753.75628872 C620.41723565 753.7565947 620.41723565 753.7565947 619.17377096 753.75690687 C617.95641314 753.75720677 617.95641314 753.75720677 616.71446223 753.75751273 C603.18689626 753.7612441 589.65940375 753.78031818 576.13187456 753.81200123 C567.78626872 753.83092952 559.4408511 753.83686897 551.09522968 753.82618405 C545.37783745 753.81987091 539.66058034 753.82788851 533.94321776 753.84723817 C530.64328221 753.85793396 527.34374264 753.85987139 524.04379851 753.84876668 C520.46774986 753.83770106 516.89260164 753.85101381 513.31660849 753.87052381 C511.74920419 753.85683683 511.74920419 753.85683683 510.15013516 753.84287333 C504.41164309 753.90281129 504.41164309 753.90281129 499.27441698 756.29306448 C497.53663608 758.20192252 496.2960551 759.80934438 495.15936667 762.11432874 C494.79182272 762.83926527 494.42427878 763.56420179 494.04559714 764.31110609 C493.4676943 765.48793958 493.4676943 765.48793958 492.87811667 766.68854749 C491.99853017 768.41805653 491.11556758 770.14585168 490.22967917 771.87214124 C489.53406882 773.22928236 489.53406882 773.22928236 488.82440573 774.61384046 C486.41135917 779.22241724 483.83248935 783.73408636 481.25311667 788.25104749 C476.20940065 797.11205778 471.23662892 806.00902664 466.31561667 814.93854749 C465.9753948 815.55568616 465.63517294 816.17282484 465.28464133 816.80866468 C460.89419593 824.77550052 456.53350579 832.75818292 452.19061667 840.75104749 C444.09730658 855.63806222 435.71657556 870.36637869 427.25702292 885.04792249 C422.70885396 893.1041386 418.36352355 901.26882791 414.02411276 909.43879163 C409.03365397 918.82481901 404.03682471 928.21371296 398.75311667 937.43854749 C398.37638815 938.11546644 397.99965964 938.79238538 397.6115151 939.48981702 C395.38597952 943.30287462 393.44904579 945.59144362 389.37811667 947.37604749 C387.13202292 947.84479749 387.13202292 947.84479749 384.94061667 947.87604749 C384.22003073 947.90698499 383.49944479 947.93792249 382.75702292 947.96979749 C378.12066636 946.81261162 375.41346592 943.97098525 372.8915444 940.08600843 C371.29818171 937.25580678 369.79673368 934.39155896 368.31561667 931.50104749 C367.17693732 929.33856354 366.03625819 927.17713159 364.89374167 925.01667249 C364.31430807 923.91516859 363.73487448 922.81366468 363.13788229 921.67878187 C360.37051437 916.48497592 357.47488475 911.36634716 354.56561667 906.25104749 C354.02211569 905.29311292 353.47861471 904.33517835 352.91864401 903.34821546 C349.93769934 898.1007674 346.94101055 892.86238964 343.94061667 887.62604749 C339.99147833 880.72328277 336.15007712 873.77072594 332.46405417 866.72370374 C328.17989994 858.54468237 323.76041847 850.46191071 319.19061667 842.43854749 C314.38486867 833.99992931 309.7133985 825.49894031 305.12811667 816.93854749 C295.98028112 799.85073945 295.98028112 799.85073945 286.19061667 783.12604749 C284.05761307 779.62392588 282.1857798 776.05676725 280.37811667 772.37604749 C275.82408146 762.20389972 275.82408146 762.20389972 268.37811667 754.37604749 C266.20339932 754.07583039 266.20339932 754.07583039 263.76219088 754.1227144 C262.80895093 754.117099 261.85571099 754.11148361 260.87358499 754.10569805 C259.29948852 754.11166969 259.29948852 754.11166969 257.69359213 754.11776197 C256.58045246 754.11408626 255.46731278 754.11041056 254.3204416 754.10662347 C250.57098464 754.09660174 246.82167477 754.1008026 243.07220846 754.10480726 C240.39187395 754.10042259 237.71155291 754.09523221 235.03122336 754.08896863 C229.24942075 754.0769134 223.46764572 754.07181516 217.68583113 754.07108724 C209.31971811 754.06976265 200.95367213 754.05465998 192.58758274 754.03559207 C179.00613164 754.00473502 165.42467883 753.98057715 151.84320456 753.96271741 C151.03003709 753.96164473 150.21686963 753.96057205 149.37906072 753.95946687 C140.30859779 753.94764911 131.23813417 753.93744389 122.16766745 753.92902601 C118.87982563 753.92595219 115.59198383 753.92286339 112.30414206 753.91974866 C111.49287285 753.91898332 110.68160365 753.91821799 109.84575053 753.91742945 C96.31935005 753.90434864 82.79299801 753.8797093 69.26663339 753.84600526 C60.9218959 753.8257105 52.57726199 753.81542653 44.23249964 753.81799447 C38.51370706 753.81902944 32.79499635 753.80939432 27.07623234 753.79135544 C23.77624122 753.781309 20.47646817 753.77782007 17.17646223 753.78412282 C13.59865272 753.7902406 10.02135687 753.77807436 6.44359213 753.76131666 C5.40088665 753.76752847 4.35818118 753.77374029 3.28387856 753.78014034 C-2.04648085 753.7345322 -6.1524639 753.60951985 -10.62188333 750.37604749 C-15.63395411 744.83479471 -15.18340058 739.38978012 -15.1252479 732.175753 C-15.13106166 730.92967285 -15.13687542 729.68359271 -15.14286536 728.39975256 C-15.1584664 724.93279825 -15.14910943 721.46628847 -15.13575355 717.99934126 C-15.12562206 714.23072173 -15.13864028 710.46217123 -15.14872688 706.69356143 C-15.16319019 700.08587821 -15.1627253 693.47832564 -15.15253824 686.87063634 C-15.137431 677.04492545 -15.1451314 667.21932513 -15.15737147 657.39361502 C-15.17845565 639.84667605 -15.17660044 622.29979526 -15.16505582 604.75285073 C-15.15500239 589.39744095 -15.15236268 574.04205253 -15.15714639 558.68664014 C-15.15745193 557.66895845 -15.15775748 556.65127675 -15.15807227 555.60275621 C-15.15931758 551.47188526 -15.16059118 547.34101432 -15.16191133 543.21014339 C-15.17415345 504.44182138 -15.16304379 465.67353646 -15.14152374 426.90522017 C-15.12254064 392.44511799 -15.12423912 357.98507494 -15.14336771 323.52497327 C-15.16477592 284.82856578 -15.17328532 246.13219109 -15.16091865 207.4357785 C-15.15963574 203.31233729 -15.15838438 199.18889607 -15.15714639 195.06545484 C-15.15683008 194.05012278 -15.15651378 193.03479071 -15.15618788 191.98869101 C-15.15163372 176.64113155 -15.15696702 161.29359575 -15.16706461 145.94603956 C-15.17848607 128.4990611 -15.17567565 111.05215005 -15.15394163 93.60518003 C-15.1421729 83.83495077 -15.1414636 74.06486738 -15.15652633 64.29464184 C-15.16547155 57.77462423 -15.1599579 51.25472398 -15.14250725 44.73472382 C-15.13296006 41.01573951 -15.1298044 37.29704574 -15.14413118 33.57807022 C-15.15938709 29.57725013 -15.14391422 25.57714726 -15.1252479 21.57634199 C-15.13461256 20.41462525 -15.14397722 19.25290852 -15.15362567 18.05598825 C-15.09710728 12.04237192 -14.9426883 7.96951092 -10.62188333 3.37604749 C-6.95668296 0.77166233 -4.47664128 0.00093579 0 0 Z M61.37811667 77.37604749 C59.65971829 80.2327007 59.12788678 82.3407819 59.12626767 85.65659744 C59.12100441 86.51145505 59.11574115 87.36631266 59.11031839 88.24707505 C59.11471488 89.18330591 59.11911136 90.11953678 59.12364107 91.08413827 C59.1204346 92.08508452 59.11722812 93.08603076 59.11392447 94.11730871 C59.10557015 97.49828478 59.11156773 100.87908621 59.11742026 104.26006544 C59.11440205 106.6977124 59.11051425 109.13535842 59.10582769 111.57300276 C59.09765774 116.8868343 59.095759 122.20061391 59.09933096 127.51444662 C59.10462858 135.41621428 59.09855218 143.31794452 59.09024803 151.21970811 C59.07498772 166.15167563 59.07330503 181.08362622 59.07577106 196.0155999 C59.07760195 207.54387865 59.0758484 219.07215184 59.07154661 230.60042989 C59.07094422 232.25523082 59.07034302 233.91003175 59.06974301 235.56483268 C59.06883578 238.05829248 59.06792712 240.55175228 59.06701066 243.04521208 C59.05857806 266.23547706 59.05424757 289.42573995 59.05841738 312.61600626 C59.05857376 313.49068651 59.05873013 314.36536677 59.05889125 315.26655249 C59.05969706 319.70003 59.06054283 324.1335075 59.06140455 328.566985 C59.06157564 329.447527 59.06174672 330.328069 59.061923 331.23529408 C59.06226965 333.01596464 59.06261818 334.7966352 59.06296858 336.57730575 C59.0683269 364.29026154 59.06039349 392.00318553 59.04193503 419.71613538 C59.02123307 450.83403102 59.01048883 481.95190694 59.01451051 513.06980985 C59.01490588 516.38582301 59.01526742 519.70183617 59.01560789 523.01784933 C59.01569863 523.83436814 59.01578936 524.65088696 59.01588284 525.49214877 C59.01705027 537.83439674 59.01038947 550.17662485 58.99979597 562.51886785 C58.98776515 576.55023964 58.98616053 590.58156759 58.99858614 604.61294001 C59.00523241 612.47040024 59.00354315 620.32775577 58.98999763 628.18520771 C58.98082259 634.04304592 58.98722737 639.90079809 58.99984542 645.75863231 C59.0025142 648.1354365 59.00005826 650.51225278 58.99210956 652.88904517 C58.98209046 656.10692947 58.99035099 659.32425442 59.00338656 662.54211557 C58.99242254 663.94295012 58.99242254 663.94295012 58.98123702 665.37208435 C59.02163922 670.14706324 59.12621824 673.58963068 62.37811667 677.37604749 C65.15067383 679.24790453 67.34112035 679.62643978 70.64856917 679.62938058 C71.49929829 679.63499598 72.35002742 679.64061138 73.22653621 679.64639693 C74.15629257 679.64241584 75.08604892 679.63843475 76.0439797 679.63433301 C77.531211 679.63984657 77.531211 679.63984657 79.04848737 679.64547151 C82.38025815 679.65547431 85.71186279 679.65129614 89.04364401 679.64728773 C91.42855895 679.65167345 93.81347235 679.65697505 96.19838339 679.66312635 C102.0098479 679.67614168 107.82127309 679.68033075 113.63275079 679.68136638 C120.40095881 679.68338596 127.16911331 679.69916392 133.93729688 679.71650291 C146.01521709 679.74734737 158.0931392 679.77151131 170.17108542 679.78937757 C170.89396894 679.79045025 171.61685246 679.79152293 172.36164154 679.79262812 C180.42566429 679.8044468 188.4896878 679.8146523 196.55371481 679.82306898 C199.47727847 679.82614286 202.40084211 679.82923166 205.32440573 679.83234632 C206.04580234 679.83311166 206.76719895 679.833877 207.51045607 679.83466553 C219.54075527 679.84774879 231.57100004 679.87239074 243.60125893 679.90608972 C250.35532268 679.92455635 257.10929679 679.93695787 263.86338812 679.93479192 C270.21469352 679.93304398 276.56582762 679.94477584 282.91709334 679.96690977 C285.24955275 679.97251747 287.58203095 679.972987 289.91449171 679.96797216 C293.09596542 679.96184847 296.27686285 679.97403105 299.45828635 679.99077833 C300.38358125 679.98456651 301.30887616 679.9783547 302.26221031 679.97195464 C307.38229299 680.02114378 310.94777482 680.51497462 315.37811667 683.37604749 C316.95453268 685.37116468 316.95453268 685.37116468 318.13202292 687.67292249 C318.58690085 688.53691663 319.04177878 689.40091077 319.51044089 690.29108655 C319.98239889 691.22662366 320.4543569 692.16216077 320.94061667 693.12604749 C321.99465404 695.13748836 323.05070746 697.14787384 324.10858542 699.15729749 C324.9175527 700.70803968 324.9175527 700.70803968 325.74286276 702.29010999 C328.30721386 707.12937514 331.03156948 711.87400169 333.75311667 716.62604749 C339.12301982 726.05922327 344.29474831 735.59016966 349.41962057 745.15827405 C353.27142983 752.34298479 357.19463001 759.47819441 361.22577292 766.56354749 C362.82623835 769.38096356 364.3882208 772.21723759 365.93671042 775.06354749 C366.3746694 775.86469984 366.81262839 776.66585218 367.26385885 777.49128187 C368.09893922 779.02111401 368.92943572 780.55346243 369.75409323 782.08893812 C374.26523979 790.95788098 374.26523979 790.95788098 381.37811667 797.37604749 C387.08813543 798.13696518 387.08813543 798.13696518 391.84686667 795.36432874 C394.82380755 791.84988464 396.91446366 788.24232436 399.06561667 784.18854749 C399.95081962 782.5582231 400.83624201 780.92801784 401.72186667 779.29792249 C402.16659323 778.47227796 402.61131979 777.64663343 403.06952292 776.79596937 C405.03627313 773.1589492 407.05128635 769.54935944 409.06561667 765.93854749 C409.8992331 764.4387048 410.73255332 762.93869745 411.56561667 761.43854749 C417.81561667 750.18854749 417.81561667 750.18854749 419.66473776 746.86017835 C420.93595185 744.57196034 422.20711036 742.28371145 423.47821432 739.99543226 C426.46563815 734.61754275 429.4534842 729.23989063 432.4435311 723.86345899 C433.78690826 721.44784666 435.12996279 719.03205503 436.47299582 716.61625135 C437.40809873 714.93452891 438.34366096 713.2530619 439.27923971 711.57160413 C442.55575764 705.67750992 445.80587688 699.77079398 449.01044089 693.83722913 C455.5123407 682.13682712 455.5123407 682.13682712 461.37811667 680.37604749 C464.64080787 680.08837753 467.89069977 680.11234095 471.16423422 680.13122022 C472.15657617 680.12895565 473.14891813 680.12669108 474.17133105 680.12435788 C477.50000877 680.11905636 480.82850089 680.12789762 484.1571694 680.13654554 C486.54223064 680.13543281 488.92729159 680.13337525 491.31235129 680.13044202 C496.45024456 680.12571704 501.58809215 680.12684281 506.72598463 680.13221776 C514.84785802 680.14043649 522.96965018 680.12919761 531.09151083 680.11501539 C533.8713597 680.11041452 536.65120878 680.10596413 539.43105799 680.10157716 C540.47305578 680.09992995 540.47305578 680.09992995 541.53610403 680.09824946 C549.43957447 680.08608057 557.34304752 680.07852467 565.24652487 680.0725807 C565.96884289 680.07203264 566.69116091 680.07148458 567.43536735 680.07091991 C579.14511638 680.06245755 590.85484242 680.0658006 602.56459158 680.07173505 C614.5904212 680.077352 626.61613503 680.06382198 638.64192927 680.03418225 C645.39268683 680.01821425 652.14319127 680.01181522 658.89395338 680.02876318 C665.2412576 680.04406694 671.58811777 680.0365469 677.93538672 680.01140058 C680.2662386 680.00634385 682.59712704 680.00986239 684.92794997 680.02253377 C688.1075146 680.03859219 691.28552153 680.0240413 694.46501547 680.00182569 C695.38962826 680.01386319 696.31424105 680.02590069 697.26687241 680.03830296 C701.56926805 679.97690923 704.49075451 679.74497503 707.93518549 677.02443635 C710.96296787 673.74200858 711.50290314 671.54230285 711.5046165 667.23893213 C711.50737624 666.39062206 711.51013599 665.542312 711.51297936 664.66829556 C711.50989638 663.2672283 711.50989638 663.2672283 711.50675112 661.83785665 C711.50850416 660.84312937 711.51025719 659.8484021 711.51206335 658.82353157 C711.51675142 655.45773267 711.51425067 652.09197644 711.51182944 648.72617567 C711.513696 646.30176699 711.51599608 643.87735861 711.51869476 641.45295072 C711.5235525 636.16495668 711.52526444 630.87697526 711.52423865 625.58898008 C711.52271697 617.72560662 711.52686823 609.86224334 711.53211327 601.99887186 C711.54179754 587.13946635 711.54459791 572.28006428 711.54517033 557.42065598 C711.54562939 545.94813284 711.54768523 534.47561106 711.55087095 523.00308836 C711.55176846 519.70397759 711.55265827 516.40486682 711.55354583 513.10575604 C711.55376688 512.28565112 711.55398793 511.46554619 711.55421568 510.6205896 C711.56037214 487.54428466 711.56431601 464.46798019 711.5638724 441.3916744 C711.56385682 440.52117671 711.56384124 439.65067901 711.56382519 438.7538026 C711.56374208 434.34148392 711.56364304 429.92916524 711.56354048 425.51684655 C711.56352054 424.64050104 711.56350059 423.76415552 711.56348004 422.86125408 C711.5634396 421.08906912 711.56339781 419.31688417 711.56335465 417.54469921 C711.56274176 389.96617853 711.5702501 362.38767013 711.58392721 334.80915296 C711.59927709 303.8447195 711.6078941 272.88029411 711.60696399 241.9158566 C711.60688936 238.61611712 711.60684065 235.31637764 711.60680968 232.01663816 C711.60679802 231.20412229 711.60678637 230.39160643 711.60677436 229.55446887 C711.60674355 216.46077663 711.61313812 203.36709503 711.62174194 190.27340595 C711.63020558 177.12132501 711.63121851 163.9692597 711.62463262 150.81717755 C711.62092836 142.997513 711.62279535 135.17789581 711.63257496 127.35823625 C711.63925166 121.52849376 711.63554545 115.69878866 711.62770174 109.86904655 C711.62615503 107.50365211 711.62802643 105.13825259 711.63356181 102.77286412 C711.64056273 99.57046381 711.63537498 96.36831212 711.62700564 93.16592062 C711.63445791 91.77187685 711.63445791 91.77187685 711.64206073 90.34967059 C711.60980403 84.55588433 711.32326171 80.63458203 707.41343886 76.0948332 C702.92167712 73.55132204 698.89383393 73.82688097 693.81296164 73.87547624 C692.73150799 73.86996207 691.65005434 73.86444791 690.53582937 73.85876665 C686.88683896 73.84509634 683.23852089 73.86010984 679.58954245 73.87484205 C676.95714848 73.87095188 674.32480109 73.86547953 671.69241911 73.85807115 C665.956184 73.84514749 660.22010323 73.847145 654.4838677 73.85885084 C645.95403572 73.87620995 637.42432548 73.87074288 628.89448726 73.86068393 C613.66185855 73.84347419 598.42930171 73.84904402 583.19667447 73.86404111 C569.86654429 73.87708093 556.53643908 73.88229117 543.2063027 73.87972295 C541.88117282 73.87948233 541.88117282 73.87948233 540.52927263 73.87923684 C536.94339301 73.87857328 533.35751341 73.87787088 529.77163381 73.8771115 C496.11734014 73.87008376 462.46309042 73.88559115 428.80880794 73.91173496 C398.893746 73.93485088 368.9787324 73.94023859 339.06366354 73.93000257 C331.4038837 73.92740067 323.74410385 73.92481569 316.08432394 73.92240465 C315.14138336 73.9221072 314.19844278 73.92180975 313.22692825 73.92150329 C288.24736121 73.9138924 263.26779814 73.92029698 238.28823286 73.93110067 C235.60114215 73.9322485 232.91405143 73.93339168 230.2269607 73.93452749 C228.44433412 73.93528274 226.66170754 73.93604839 224.87908097 73.9368245 C211.5556963 73.94248854 198.23232413 73.94114902 184.90893942 73.93659627 C169.76318369 73.93149444 154.6174748 73.93731485 139.47173077 73.95749057 C130.98995177 73.96849779 122.50826483 73.97125083 114.02648298 73.96220204 C108.36655068 73.95699721 102.70669743 73.9626421 97.04678174 73.97725539 C93.81822039 73.98528891 90.58988355 73.98689947 87.36131698 73.97868282 C83.88844755 73.97059706 80.41610684 73.98076652 76.9432717 73.99573076 C75.93426361 73.98899311 74.92525553 73.98225546 73.88567144 73.97531363 C67.11010807 73.99711806 67.11010807 73.99711806 61.37811667 77.37604749 Z " fill="#000000" transform="translate(94.62188333272934,5.623952507972717)"/>
<path d="M0 0 C1.08147454 -0.00679667 2.16294908 -0.01359334 3.27719557 -0.02059597 C6.90760139 -0.03961393 10.53767116 -0.03712811 14.16812134 -0.03465271 C16.76830989 -0.0436273 19.36849444 -0.05383485 21.96867371 -0.06518555 C28.30238454 -0.09009377 34.6360116 -0.09834953 40.96976732 -0.10002268 C46.11834195 -0.10144863 51.26688897 -0.10761519 56.41545486 -0.11712456 C71.01491353 -0.14354062 85.61430606 -0.15738316 100.21378879 -0.15513314 C101.00067654 -0.15501327 101.78756429 -0.1548934 102.59829712 -0.1547699 C103.78007097 -0.15458593 103.78007097 -0.15458593 104.98571904 -0.15439826 C117.75540925 -0.15317876 130.52483413 -0.18189072 143.29444759 -0.224185 C156.40845252 -0.26727701 169.52232805 -0.28799555 182.63640559 -0.28540367 C189.99811867 -0.28440781 197.35955355 -0.29264633 204.72120285 -0.32493782 C211.64390364 -0.35510952 218.56600748 -0.35424668 225.48873711 -0.33238792 C228.0304252 -0.32924542 230.57214967 -0.33636865 233.11377525 -0.3544693 C236.58216081 -0.37757155 240.04850517 -0.36373879 243.5168457 -0.34057617 C244.52414651 -0.35600686 245.53144732 -0.37143755 246.5692724 -0.38733584 C252.521449 -0.29941013 255.7944263 0.67576456 260.13859808 4.82174546 C263.94763262 9.64683475 262.57134869 16.99721498 262.57070923 22.84767151 C262.57285452 25.03562628 262.59089597 27.22304122 262.61001587 29.41090393 C262.66376848 42.4586576 261.65134092 55.34244479 258.13540649 67.96363831 C257.91779663 68.75826477 257.70018677 69.55289124 257.47598267 70.37159729 C252.35326527 88.50190998 244.03641278 106.28658424 231.38540649 120.40113831 C230.66610962 121.22742737 229.94681274 122.05371643 229.20571899 122.90504456 C226.96867111 125.44010746 224.69140819 127.92872411 222.38540649 130.40113831 C221.67642212 131.16426331 220.96743774 131.92738831 220.23696899 132.71363831 C201.31033211 152.39187449 175.81729399 164.70671093 149.38540649 170.40113831 C148.27681274 170.64734924 147.16821899 170.89356018 146.02603149 171.14723206 C110.2875414 177.59260651 72.81749542 168.96268633 43.12759399 148.40504456 C38.7575813 145.21157374 34.53432464 141.87612051 30.38540649 138.40113831 C29.31999634 137.52135315 29.31999634 137.52135315 28.23306274 136.62379456 C23.46016844 132.58378229 19.33343198 128.24534136 15.38540649 123.40113831 C14.60036743 122.44207581 13.81532837 121.48301331 13.00650024 120.49488831 C6.910779 112.89461621 1.96222313 104.99009939 -2.61459351 96.40113831 C-3.14826538 95.43820862 -3.68193726 94.47527893 -4.23178101 93.48316956 C-11.41974369 79.98246243 -15.31413561 65.44513993 -17.61459351 50.40113831 C-17.78660278 49.34128723 -17.95861206 48.28143616 -18.13583374 47.18946838 C-18.64112754 43.19117979 -18.79376629 39.25985676 -18.81771851 35.23707581 C-18.82341858 34.48197723 -18.82911865 33.72687866 -18.83499146 32.94889832 C-18.84437706 31.36398189 -18.85094956 29.77904652 -18.85482788 28.19410706 C-18.86459489 25.7757963 -18.89570217 23.35831498 -18.92709351 20.94020081 C-18.93361929 19.3933308 -18.93887142 17.84645479 -18.94271851 16.29957581 C-18.95506531 15.58175934 -18.96741211 14.86394287 -18.98013306 14.12437439 C-18.9605032 9.69125346 -18.43933476 6.85932972 -15.61459351 3.40113831 C-10.85808955 -0.53386363 -5.86945011 -0.02695132 0 0 Z M60.38540649 59.40113831 C58.21065279 64.16402866 59.34189605 69.04771263 60.94790649 73.83863831 C66.76460444 87.97617195 74.97401805 97.14200745 89.20571899 103.18629456 C110.67419777 111.3886249 136.36440718 111.25184527 157.47525024 101.93238831 C162.47048317 99.30402413 167.16840966 96.16157052 171.38540649 92.40113831 C171.38540649 91.74113831 171.38540649 91.08113831 171.38540649 90.40113831 C172.04540649 90.40113831 172.70540649 90.40113831 173.38540649 90.40113831 C179.19855493 82.99868082 183.47571257 74.42786058 184.88540649 65.08863831 C184.21033961 61.46015382 182.66721784 59.26970114 180.38540649 56.40113831 C177.22555701 54.29457198 176.4620842 54.14776751 172.85102844 54.12698364 C171.92160431 54.11700851 170.99218018 54.10703339 170.03459167 54.09675598 C169.0168718 54.09609131 167.99915192 54.09542664 166.95059204 54.09474182 C165.87714539 54.0864183 164.80369873 54.07809479 163.69772339 54.06951904 C160.13915407 54.04536841 156.5807679 54.03664042 153.02212524 54.03004456 C150.55213871 54.02108171 148.08215274 54.01195993 145.61216736 54.00268555 C140.42955199 53.98617895 135.24700135 53.97849245 130.06436157 53.9756012 C123.42284138 53.97021744 116.78194455 53.93254397 110.14056683 53.88685703 C105.037041 53.85711596 99.9336621 53.84987826 94.83005714 53.84887505 C92.3816226 53.8446665 89.93318787 53.83220699 87.48483849 53.8113575 C84.05890573 53.78450751 80.63438873 53.78925092 77.20840454 53.80177307 C75.69093376 53.77952164 75.69093376 53.77952164 74.14280701 53.75682068 C67.77904448 53.8230693 64.74205592 54.66180437 60.38540649 59.40113831 Z " fill="#000000" transform="translate(357.6145935058594,371.59886169433594)"/>
<path d="M0 0 C9.41935757 9.0150933 14.28156043 20.99394446 14.8125 33.875 C14.6093475 47.28306482 8.99476309 57.85589297 0.0234375 67.453125 C-3.7639811 70.98804903 -7.81115618 73.4595806 -12.4375 75.75 C-13.05882812 76.07742188 -13.68015625 76.40484375 -14.3203125 76.7421875 C-23.47471336 80.9032788 -36.00845646 81.06788901 -45.4375 77.75 C-59.450644 71.99204526 -67.58841676 64.42914126 -74.4375 50.75 C-78.80681744 39.62810106 -78.22463606 27.07867158 -73.6875 16.125 C-67.40908166 3.1988446 -58.90022562 -4.9556697 -45.4375 -10.25 C-29.25863132 -15.17966871 -12.92376036 -10.3141549 0 0 Z " fill="#000000" transform="translate(440.4375,230.25)"/>
<path d="M0 0 C8.65551975 9.42553304 13.25262223 20.65873101 13.5625 33.4375 C12.77874322 46.00834402 8.3524636 56.41156422 -0.4375 65.4375 C-11.19547538 74.89147836 -22.17336575 78.56776607 -36.4375 78.4375 C-50.29312301 77.4219046 -60.10759612 70.52241544 -69.2578125 60.4296875 C-77.47679636 50.22823517 -79.29085773 38.29706393 -78.18359375 25.50390625 C-75.97353448 12.74131174 -68.91784577 1.97135125 -58.4375 -5.5625 C-39.18809217 -17.42297083 -16.86008244 -15.45932031 0 0 Z " fill="#000000" transform="translate(582.4375,231.5625)"/>
</svg>
